<svg width="24" height="24" viewBox="0 0 24 24" fill="none" xmlns="http://www.w3.org/2000/svg">
<path d="M11.9994 5.125C13.4208 5.125 14.608 4.01727 14.7494 2.63281C14.7623 2.50391 14.6205 2.375 14.4916 2.375C14.4219 2.37507 14.3528 2.38819 14.2879 2.41367C14.2793 2.41711 13.3813 2.76172 11.9994 2.76172C10.6175 2.76172 9.71777 2.41797 9.71089 2.41367C9.63766 2.38819 9.56069 2.37512 9.48316 2.375H9.48058C9.44845 2.3767 9.41698 2.38473 9.38797 2.39861C9.35895 2.4125 9.33296 2.43198 9.31148 2.45593C9.29001 2.47988 9.27347 2.50783 9.26282 2.53818C9.25217 2.56854 9.24761 2.60069 9.24941 2.63281C9.39335 4.01469 10.5814 5.125 11.9994 5.125Z" fill="#6AA9F0"/>
<path d="M21.8525 4.86301L16.297 2.91824C16.2732 2.90994 16.2479 2.90697 16.2229 2.90954C16.1978 2.91211 16.1736 2.92016 16.152 2.93311C16.1304 2.94607 16.1119 2.96361 16.0978 2.98451C16.0838 3.0054 16.0745 3.02913 16.0706 3.05402C15.9099 4.01698 15.4128 4.89172 14.6678 5.52267C13.9228 6.15363 12.9782 6.49989 12.0019 6.49989C11.0256 6.49989 10.081 6.15363 9.33595 5.52267C8.59096 4.89172 8.09389 4.01698 7.93316 3.05402C7.92939 3.02872 7.92002 3.00457 7.90573 2.98335C7.89144 2.96213 7.8726 2.94437 7.85057 2.93136C7.82854 2.91835 7.80389 2.91042 7.77841 2.90815C7.75292 2.90588 7.72726 2.90933 7.70328 2.91824L2.14785 4.86301C1.99235 4.91744 1.86158 5.0259 1.77932 5.16864C1.69707 5.31138 1.66881 5.47891 1.69968 5.64074L2.41425 9.42199C2.44175 9.56612 2.51464 9.69766 2.62226 9.7974C2.72988 9.89713 2.86658 9.95981 3.01238 9.97629L5.11269 10.2135C5.19843 10.2231 5.27739 10.2647 5.33391 10.3299C5.39043 10.3951 5.42036 10.4791 5.41777 10.5654L5.10281 20.9166C5.09863 21.05 5.13338 21.1817 5.20282 21.2957C5.27225 21.4097 5.37337 21.501 5.49382 21.5585C5.59396 21.6037 5.70279 21.6265 5.81265 21.6251H18.1877C18.2975 21.6265 18.4063 21.6037 18.5065 21.5585C18.6269 21.501 18.7281 21.4097 18.7975 21.2957C18.8669 21.1817 18.9017 21.05 18.8975 20.9166L18.5825 10.5654C18.5799 10.4791 18.6099 10.3951 18.6664 10.3299C18.7229 10.2647 18.8019 10.2231 18.8876 10.2135L20.9879 9.97629C21.1337 9.95981 21.2704 9.89713 21.378 9.7974C21.4857 9.69766 21.5585 9.56612 21.5861 9.42199L22.3006 5.64074C22.3315 5.47891 22.3032 5.31138 22.221 5.16864C22.1387 5.0259 22.0079 4.91744 21.8525 4.86301Z" fill="#6AA9F0"/>
</svg>
