<svg width="24" height="24" viewBox="0 0 24 24" fill="none" xmlns="http://www.w3.org/2000/svg">
<path d="M21.9969 18.23C21.9969 18.957 21.5919 20.357 20.6819 21.126C20.4999 21.266 20.3179 21.187 20.3979 20.983C20.6629 20.335 21.2689 18.836 20.9849 18.491C20.7839 18.229 19.9539 18.249 19.2459 18.309C18.9229 18.35 18.6389 18.369 18.4189 18.414C18.2149 18.43 18.1739 18.251 18.3779 18.111C18.6437 17.9236 18.9373 17.7792 19.2479 17.683C20.3979 17.339 21.7269 17.546 21.9179 17.766C21.9539 17.808 21.9969 17.927 21.9969 18.23ZM20.0749 19.523C19.812 19.7258 19.535 19.9096 19.2459 20.073C17.1239 21.348 14.3749 22.016 11.9879 22.016C8.14494 22.016 4.70794 20.599 2.09994 18.228C1.87594 18.046 2.06094 17.782 2.32294 17.925C5.13294 19.565 8.61094 20.557 12.2109 20.557C14.4769 20.557 16.9189 20.133 19.2459 19.221C19.4089 19.16 19.5909 19.077 19.7499 19.019C20.1169 18.854 20.4399 19.261 20.0749 19.523ZM13.9049 8.493C13.9049 7.452 13.9469 6.839 13.6019 6.313C13.2959 5.88 12.7689 5.62 12.0329 5.661C11.2349 5.705 10.3779 6.228 10.1599 7.187C10.1169 7.407 9.98894 7.623 9.72294 7.67L7.28794 7.36C7.11394 7.32 6.84894 7.187 6.93594 6.839C7.45894 4.088 9.80994 3.129 12.0339 3H12.5559C13.7759 3 15.3439 3.349 16.3469 4.264C17.5639 5.4 17.4339 6.926 17.4339 8.584V12.511C17.4339 13.689 17.9119 14.211 18.3919 14.825C18.5219 15.044 18.5669 15.302 18.3479 15.48C17.7179 16.0417 17.0788 16.5931 16.4309 17.134C16.2559 17.267 15.9419 17.281 15.8209 17.179C15.0509 16.534 14.8629 16.176 14.3859 15.521C13.5559 16.392 12.8589 16.873 12.0299 17.134C11.447 17.2823 10.8474 17.3549 10.2459 17.35C8.15594 17.35 6.50094 16.047 6.50094 13.47C6.50094 11.421 7.59094 10.028 9.20094 9.369C10.8109 8.709 13.1509 8.499 13.9049 8.495M13.4279 13.687C13.9479 12.815 13.9049 12.101 13.9049 10.502C13.2529 10.502 12.5989 10.547 12.0339 10.68C10.9889 10.983 10.1589 11.64 10.1589 13.035C10.1589 14.125 10.7269 14.867 11.6849 14.867C11.8169 14.867 11.9329 14.852 12.0329 14.822C12.7029 14.636 13.1209 14.3 13.4279 13.687Z" fill="white"/>
</svg>
