<svg width="24" height="24" viewBox="0 0 24 24" fill="none" xmlns="http://www.w3.org/2000/svg">
<path d="M20.8026 7.18296C21.4536 7.16421 21.8338 7.52571 21.4566 8.05671C20.9263 8.80296 20.2363 9.39171 19.3843 9.66996L18.9403 8.53821C18.853 8.30531 18.6962 8.10484 18.4913 7.96387C18.2863 7.82291 18.0431 7.74824 17.7943 7.74996H14.5813C14.2715 7.1759 14.1106 6.5333 14.1133 5.88096C14.1133 4.31346 15.3058 3.05871 16.5928 2.36046C17.1651 2.04996 17.5663 2.46021 17.4703 3.10371C17.4628 3.15621 17.4478 3.22971 17.4328 3.31146C17.3991 3.48471 17.3578 3.69396 17.3578 3.81021C17.3578 5.67396 18.8413 7.18371 20.7051 7.18371C20.7381 7.18371 20.7706 7.18321 20.8026 7.18221" fill="#6AA9F0"/>
<path d="M6.222 8.49983C6.11446 8.51756 6.01209 8.55851 5.922 8.61983L5.92425 8.62583C5.85153 8.67891 5.7964 8.75259 5.766 8.83733L1.5525 19.5743C1.3635 20.0093 1.7085 20.4998 2.20875 20.4998H6.81V10.8826L10.2007 19.5091C10.3167 19.8031 10.519 20.0551 10.781 20.2318C11.043 20.4085 11.3525 20.5017 11.6685 20.4991H21.7852C22.2855 20.4991 22.6297 19.9988 22.452 19.5413L18.2385 8.80433C18.2052 8.71367 18.1444 8.63564 18.0647 8.58107C17.985 8.5265 17.8903 8.49811 17.7937 8.49983H6.222ZM13.5037 14.9678C13.3637 14.9678 13.2268 14.9266 13.1101 14.8492C12.9934 14.7718 12.902 14.6618 12.8475 14.5328L11.9137 12.2348C11.7247 11.7773 12.069 11.2876 12.5692 11.2876H14.8042C14.9441 11.2877 15.0809 11.3291 15.1975 11.4064C15.314 11.4838 15.4053 11.5937 15.4597 11.7226L16.3935 14.0206C16.5825 14.4781 16.2382 14.9678 15.738 14.9678H13.5037Z" fill="#6AA9F0"/>
</svg>
