<svg width="150" height="34" viewBox="0 0 150 34" fill="none" xmlns="http://www.w3.org/2000/svg">
<path d="M19.4995 20.385C16.9809 18.7429 14.6872 16.9344 12.9018 14.5544C12.147 13.547 11.6063 12.4502 11.4631 11.1655C11.1088 7.97984 14.2528 5.57676 17.1781 6.82606C18.1871 7.25738 18.8356 8.0507 19.2792 9.03042C19.3424 9.16906 19.4025 9.3077 19.4656 9.4448C19.4687 9.45096 19.4857 9.45096 19.5118 9.45712C19.6566 9.15674 19.7922 8.84865 19.9524 8.55289C20.738 7.1095 22.3247 6.31001 23.9452 6.53337C25.6551 6.7706 27.0353 7.98909 27.4297 9.57112C27.8472 11.2456 27.3172 12.7074 26.413 14.0646C25.0728 16.0764 23.2628 17.6307 21.3542 19.0741C20.7581 19.5239 20.1342 19.9367 19.4995 20.3834V20.385Z" fill="white"/>
<path d="M19.5427 25.3822C19.6536 25.0987 19.7892 24.7567 19.9232 24.4148C20.6703 22.5015 21.801 20.8594 23.3599 19.5162C24.0238 18.9447 24.7786 18.5288 25.6136 18.2884C27.2202 17.8263 28.4495 16.8851 29.3892 15.5157C29.7697 14.9596 30.2025 14.4358 30.6431 13.9259C30.9758 13.5408 31.3732 13.4469 31.6243 13.6225C31.8754 13.7981 31.9293 14.1986 31.7198 14.6515C31.0174 16.1673 30.0053 17.4427 28.7098 18.4964C28.6128 18.5765 28.5127 18.6535 28.4141 18.7306C28.4326 18.7675 28.451 18.8045 28.4695 18.8415C29.0133 18.5842 29.5802 18.3655 30.0962 18.0605C31.8523 17.0253 32.7781 15.454 32.943 13.4376C33.0184 12.5211 33.0462 11.6014 33.0831 10.6833C33.0955 10.3768 33.1186 10.0856 33.4698 9.98549C33.7317 9.91001 33.9766 10.0949 34.126 10.4877C34.5281 11.5429 34.6005 12.6412 34.5219 13.7549C34.3525 16.175 33.0785 17.9865 31.3039 19.5008C30.6677 20.043 29.9714 20.5175 29.289 21.0027C28.3478 21.6728 27.2649 21.987 26.1481 22.2042C23.4831 22.7218 21.7209 24.3578 20.5563 26.7254C20.2975 27.2523 20.0895 27.8053 19.8354 28.4014C19.6213 28.138 19.4025 27.9023 19.2223 27.6389C18.6261 26.7763 18.0685 25.8874 17.4539 25.0386C16.2662 23.3981 14.6441 22.4014 12.6477 22.1488C9.99814 21.8145 6.13781 18.5565 5.19352 16.5169C4.34012 14.673 4.21226 12.8045 4.69442 10.8666C4.75142 10.634 4.85001 10.3875 5.00405 10.2119C5.11958 10.081 5.38146 9.96855 5.52934 10.0117C5.67414 10.0548 5.83897 10.3013 5.85129 10.4692C5.90675 11.2009 5.88826 11.9372 5.93909 12.6689C6.02074 13.8612 6.22562 15.0335 6.86028 16.0718C7.70443 17.452 8.96913 18.2869 10.4942 18.7629C9.61149 18.0589 8.8613 17.2317 8.22818 16.3074C7.86772 15.7806 7.56117 15.2137 7.26695 14.6469C7.02664 14.1816 7.08518 13.8073 7.35322 13.6302C7.63512 13.4438 8.02793 13.5408 8.35912 13.9444C8.8536 14.5467 9.32343 15.1706 9.79173 15.7945C10.582 16.8466 11.5494 17.68 12.8233 18.0512C15.3173 18.7783 16.9563 20.5021 18.221 22.6417C18.7386 23.5167 19.1098 24.4779 19.5427 25.3868V25.3822Z" fill="white"/>
<path d="M24.1547 32.6037C22.283 33.0566 20.4668 33.2831 18.6399 32.6299C17.6586 32.2787 16.8607 31.6825 16.1552 30.9339C15.8425 30.6042 15.5328 30.27 15.1924 29.9711C14.3405 29.2225 13.2992 29.0407 12.2055 28.9791C11.0455 28.9144 9.8748 28.8728 8.73334 28.6787C7.23603 28.4261 6.04682 27.5588 4.99316 26.4944C3.57441 25.0617 2.54386 23.3919 1.85529 21.5033C1.82756 21.4263 1.76902 21.3447 1.77981 21.2738C1.80291 21.1182 1.82602 20.8718 1.9169 20.8363C2.05092 20.7824 2.29123 20.8286 2.40368 20.9272C2.57313 21.0736 2.68558 21.2938 2.79803 21.4972C3.93334 23.5583 5.47069 25.2143 7.58417 26.2972C8.24194 26.6345 8.93205 26.8348 9.66068 26.9349C10.3893 27.035 11.0363 26.4127 10.93 25.6733C10.9285 25.661 10.9269 25.6487 10.9238 25.6379C10.8068 24.9108 10.3647 24.2761 9.74078 23.8833C9.49277 23.7277 9.25401 23.5737 9.02448 23.4073C8.43911 22.9837 7.87069 22.537 7.31305 22.0795C7.12974 21.927 6.968 21.7282 6.84938 21.5203C6.67377 21.2137 6.86325 20.8733 7.21755 20.8887C7.46864 20.8995 7.7413 20.995 7.9585 21.1259C8.41601 21.4017 8.84733 21.7236 9.28481 22.0332C10.2553 22.7187 11.3351 23.1347 12.5028 23.3072C14.3929 23.586 15.7932 24.5719 16.8006 26.1709C17.557 27.3739 18.3318 28.5662 19.3362 29.5891C20.6656 30.9431 22.1875 31.9783 24.0268 32.5098C24.0576 32.519 24.0823 32.5467 24.1577 32.6006L24.1547 32.6037Z" fill="white"/>
<path d="M37.1945 21.337C36.3518 23.757 34.987 25.8196 32.9798 27.4325C31.7197 28.443 30.224 28.8035 28.6543 28.9159C27.7716 28.9791 26.8843 28.9883 26.0016 29.0561C24.9357 29.1378 24.0391 29.6014 23.2905 30.3562C23.1595 30.4872 23.0348 30.6243 22.8576 30.8091C22.1814 30.3439 21.5051 29.8802 20.8058 29.3996C21.5328 27.0428 22.5064 24.9431 24.8294 23.8556C25.481 23.5506 26.2204 23.4104 26.9336 23.261C28.1706 23.0037 29.2427 22.4199 30.2579 21.7036C30.5336 21.508 30.8063 21.3077 31.0897 21.1229C31.2345 21.0289 31.3916 20.9395 31.5565 20.8933C31.7983 20.824 32.0617 20.8687 32.1526 21.1152C32.2111 21.2769 32.1957 21.5711 32.0879 21.6728C31.5226 22.2042 30.9372 22.7234 30.318 23.1901C29.9945 23.4351 29.6494 23.6507 29.2966 23.8679C28.4078 24.4148 27.9657 25.4885 28.2661 26.4867C28.2707 26.5005 28.2738 26.5128 28.2784 26.5267C28.3693 26.8102 28.642 26.995 28.9377 26.9765C30.7277 26.8625 32.2343 26.0707 33.5637 24.8584C34.6327 23.8818 35.4938 22.748 36.1716 21.4679C36.2656 21.2908 36.3888 21.1306 36.509 20.9796C36.6553 20.7963 36.9218 20.7424 37.1159 20.8748C37.2607 20.9734 37.2715 21.1121 37.1929 21.3354L37.1945 21.337Z" fill="white"/>
<path d="M13.025 30.2084C13.4517 30.2515 13.9123 30.4733 14.2496 30.7475C14.8581 31.2404 15.3865 31.8335 15.9195 32.4235C13.4856 32.1277 11.2134 31.4238 9.19699 30.0004C10.4725 30.0682 11.7541 30.079 13.0234 30.2068L13.025 30.2084Z" fill="white"/>
<path d="M24.1994 31.2528C24.5137 30.6582 25.0328 30.3362 25.629 30.2761C26.9614 30.139 28.3032 30.0897 29.6449 30.0574C28.0028 31.2204 26.279 31.9706 24.1994 31.2543V31.2528Z" fill="white"/>
<path d="M18.4567 1.80424C17.9792 1.47304 17.4847 1.16341 16.9779 0.878434C13.6906 -0.96855 10.0028 0.413222 7.0128 2.11849C4.21537 3.71592 1.48572 5.96033 0.484431 9.1398C-0.301191 11.6338 -0.0963132 14.3773 0.846434 16.7988C1.2377 17.8032 1.75529 18.7413 2.52243 19.5177C2.66261 19.6594 2.97224 19.8551 2.97224 19.8551C3.0015 19.8705 3.03231 19.8859 3.06312 19.8982C4.54656 20.6191 6.506 19.7996 6.50908 19.7965C6.32115 19.6718 4.5327 17.8155 4.07211 16.8065C3.21871 14.938 2.89676 13.0078 3.4929 11.0006C3.9119 9.59114 4.8069 8.68075 6.33347 8.54981C7.75837 8.42811 9.09239 8.06919 10.3278 7.31284C11.5093 6.59037 12.734 5.94031 13.934 5.24865C14.1635 5.11618 14.3961 4.96829 14.581 4.7819C14.9522 4.40449 14.809 3.78832 14.3021 3.62965C14.048 3.54955 13.7383 3.51258 13.4857 3.57728C13.0405 3.69281 12.6138 3.88845 12.1918 4.07946C11.6942 4.30591 11.2182 4.58164 10.7191 4.80193C10.1075 5.07304 9.47596 5.27638 8.78585 5.32105C8.67339 5.32876 8.58405 5.21476 8.63026 5.11155C8.63026 5.11155 8.63026 5.11155 8.63026 5.11001C9.34656 3.49255 10.4819 2.31874 12.221 1.84275C13.495 1.49461 14.7366 1.72413 15.9443 2.19859C16.3987 2.37728 16.8516 2.5837 17.3245 2.68845C17.648 2.75931 18.0238 2.73928 18.3443 2.64531C18.8326 2.50359 18.8819 2.09384 18.4598 1.80116L18.4567 1.80424Z" fill="white"/>
<path d="M20.5594 1.80424C21.0369 1.47304 21.5314 1.16341 22.0382 0.878434C25.3255 -0.96855 29.0133 0.413222 32.0033 2.11849C34.8022 3.71592 37.5304 5.96033 38.5332 9.1398C39.3188 11.6338 39.1139 14.3773 38.1712 16.7988C37.7799 17.8032 37.2623 18.7413 36.4952 19.5177C36.355 19.6594 36.0454 19.8551 36.0454 19.8551C36.0161 19.8705 35.9853 19.8859 35.9545 19.8982C34.4711 20.6191 32.5116 19.7996 32.5085 19.7965C32.6965 19.6718 34.4849 17.8155 34.9455 16.8065C35.7989 14.938 36.1209 13.0078 35.5247 11.0006C35.1057 9.59114 34.2107 8.68075 32.6841 8.54981C31.2592 8.42811 29.9252 8.06919 28.6898 7.31284C27.5083 6.59037 26.2836 5.94031 25.0836 5.24865C24.8541 5.11618 24.6215 4.96829 24.4366 4.7819C24.0654 4.40449 24.2087 3.78832 24.7155 3.62965C24.9696 3.54955 25.2793 3.51258 25.5319 3.57728C25.9771 3.69281 26.4038 3.88845 26.8259 4.07946C27.3234 4.30591 27.7994 4.58164 28.2985 4.80193C28.9101 5.07304 29.5417 5.27638 30.2318 5.32105C30.3442 5.32876 30.4336 5.21476 30.3874 5.11155C30.3874 5.11155 30.3874 5.11155 30.3874 5.11001C29.6711 3.49255 28.5357 2.31874 26.7966 1.84275C25.5227 1.49461 24.2811 1.72413 23.0734 2.19859C22.6189 2.37728 22.166 2.5837 21.6931 2.68845C21.3696 2.75931 20.9938 2.73928 20.6734 2.64531C20.185 2.50359 20.1357 2.09384 20.5578 1.80116L20.5594 1.80424Z" fill="white"/>
<path d="M45.1802 4.53389H43.0883V3.40321H48.5137V4.53389H46.4218V9.99782H45.1787V4.53389H45.1802Z" fill="white"/>
<path d="M53.7636 10.0055V7.33903H50.5225V10.0055H49.2793V3.41246H50.5225V6.19141H53.7636V3.41246H54.9974V10.0071H53.7636V10.0055Z" fill="white"/>
<path d="M61.0837 9.99628H56.1466V3.40321H61.0837V4.60938H57.382V6.12671H60.9527V7.28511H57.382V8.77318H61.0837V9.99782V9.99628Z" fill="white"/>
<path d="M50.4993 20.6037H48.623L46.1845 17.8063H44.6672V20.6037H43.0898V12.2253C44.4161 12.2253 45.7424 12.2376 47.0703 12.2376C49.042 12.25 50.0818 13.5639 50.0818 15.0104C50.0818 16.158 49.5565 17.3165 47.9668 17.6399L50.5008 20.4959V20.6037H50.4993ZM44.6672 13.7072V16.3845H47.0687C48.0731 16.3845 48.5029 15.7159 48.5029 15.0459C48.5029 14.3758 48.0608 13.7072 47.0687 13.7072H44.6672Z" fill="white"/>
<path d="M57.382 20.6037H51.1201V12.2376H57.382V13.7673H52.6852V15.6913H57.2156V17.1609H52.6852V19.0494H57.382V20.6037Z" fill="white"/>
<path d="M64.3016 20.6161V17.2333H60.1901V20.6161H58.6127V12.25H60.1901V15.776H64.3016V12.25H65.8666V20.6161H64.3016Z" fill="white"/>
<path d="M74.6857 12.25V17.0423C74.6857 19.5162 73.1684 20.7824 71.0641 20.7824C68.9599 20.7824 67.347 19.5639 67.347 17.0423V12.25H68.9121V17.0423C68.9121 18.5488 69.7732 19.3483 71.0749 19.3483C72.3766 19.3483 73.1191 18.4764 73.1191 17.0423V12.25H74.6841H74.6857Z" fill="white"/>
<path d="M83.5169 14.5437L80.7919 18.1776H80.4807L77.8158 14.5329V20.6161H76.2384V12.25H78.0545L80.6717 15.8469L83.289 12.25H85.0943V20.6161H83.5169V14.5452V14.5437Z" fill="white"/>
<path d="M92.5163 19.0263H88.1414L87.4236 20.6037H85.7137L89.4662 12.2376H91.1869L94.9394 20.6037H93.2187L92.5132 19.0263H92.5163ZM90.3289 13.9953L88.7745 17.5568H91.8816L90.3273 13.9953H90.3289Z" fill="white"/>
<path d="M101.155 12.2253H102.732V20.6037H101.753V20.6161L97.3547 14.9627V20.6037H95.7773V12.2376H97.0559L101.155 17.4243V12.2253Z" fill="white"/>
<path d="M104.191 20.6037V12.2376H105.756V20.6037H104.191Z" fill="white"/>
<path d="M107.106 12.2376H113.536V12.9786L109.198 19.1095H113.536V20.6037H106.998V19.6949L111.24 13.7195H107.106V12.2376Z" fill="white"/>
<path d="M120.432 19.0263H116.057L115.341 20.6037H113.631L117.384 12.2376H119.104L122.857 20.6037H121.136L120.431 19.0263H120.432ZM118.245 13.9953L116.69 17.5568H119.797L118.243 13.9953H118.245Z" fill="white"/>
<path d="M124.363 13.6718H121.711V12.2376H128.595V13.6718H125.942V20.6037H124.365V13.6718H124.363Z" fill="white"/>
<path d="M129.561 20.6037V12.2376H131.126V20.6037H129.561Z" fill="white"/>
<path d="M141.082 16.4692C141.058 18.632 139.731 20.7963 136.791 20.7963C133.852 20.7963 132.489 18.6813 132.489 16.4815C132.489 14.2818 133.899 12.0713 136.791 12.0713C139.684 12.0713 141.106 14.2818 141.082 16.4692ZM134.042 16.5046C134.077 17.8787 134.818 19.3498 136.791 19.3498C138.765 19.3498 139.504 17.8679 139.529 16.4939C139.552 15.0844 138.763 13.5054 136.791 13.5054C134.82 13.5054 134.006 15.0951 134.042 16.5046Z" fill="white"/>
<path d="M147.738 12.2253H149.315V20.6037H148.336V20.6161L143.938 14.9627V20.6037H142.36V12.2376H143.639L147.738 17.4243V12.2253Z" fill="white"/>
<path d="M108.269 27.5419H106.403V29.4828H105.16V22.8882C106.197 22.8882 107.232 22.879 108.269 22.879C111.49 22.879 111.5 27.5419 108.269 27.5419ZM106.403 26.4019H108.269C109.861 26.4019 109.851 24.0651 108.269 24.0651H106.403V26.4019Z" fill="white"/>
<path d="M117.379 29.4828H115.9L113.977 27.2784H112.78V29.4828H111.537V22.879C112.583 22.879 113.629 22.8882 114.674 22.8882C116.228 22.8974 117.047 23.9342 117.047 25.0741C117.047 25.9783 116.633 26.8918 115.381 27.146L117.377 29.3981V29.4828H117.379ZM112.78 24.0466V26.157H114.674C115.465 26.157 115.804 25.6302 115.804 25.1018C115.804 24.5734 115.456 24.0466 114.674 24.0466H112.78Z" fill="white"/>
<path d="M124.368 26.2232C124.349 27.9285 123.303 29.6338 120.987 29.6338C118.67 29.6338 117.595 27.967 117.595 26.2325C117.595 24.498 118.707 22.7557 120.987 22.7557C123.266 22.7557 124.388 24.498 124.368 26.2232ZM118.819 26.251C118.847 27.3339 119.432 28.4938 120.987 28.4938C122.541 28.4938 123.125 27.3262 123.143 26.2417C123.162 25.1295 122.541 23.8864 120.987 23.8864C119.432 23.8864 118.791 25.1388 118.819 26.251Z" fill="white"/>
<path d="M130.813 26.6654C130.813 28.3706 129.73 29.6137 127.911 29.6137C126.224 29.6137 125.019 28.6063 125.019 26.7408H126.244C126.244 27.8715 126.791 28.4461 127.911 28.4461C129.031 28.4461 129.568 27.6636 129.568 26.6654V24.0466H127.581V22.8882H130.813V26.6654Z" fill="white"/>
<path d="M136.898 29.4828H131.96V22.8882H136.898V24.0944H133.196V25.6117H136.767V26.7701H133.196V28.2582H136.898V29.4828Z" fill="white"/>
<path d="M143.672 28.6541C142.995 29.3226 142.118 29.6338 141.166 29.6338C138.717 29.6338 137.68 27.947 137.671 26.2325C137.662 24.5087 138.783 22.7557 141.166 22.7557C142.061 22.7557 142.908 23.0946 143.588 23.7632L142.759 24.5642C142.326 24.1406 141.742 23.9419 141.168 23.9419C139.576 23.9419 138.888 25.128 138.897 26.2309C138.906 27.3231 139.538 28.463 141.168 28.463C141.742 28.463 142.392 28.2274 142.825 27.7945L143.672 28.651V28.6541Z" fill="white"/>
<path d="M145.98 24.0189H143.888V22.8882H149.314V24.0189H147.222V29.4828H145.978V24.0189H145.98Z" fill="white"/>
<path d="M149.315 6.1606H64.5927V7.2389H149.315V6.1606Z" fill="white"/>
<path d="M102.732 25.8628H42.734V26.9411H102.732V25.8628Z" fill="white"/>
</svg>
