<svg width="596" height="270" viewBox="0 0 596 270" fill="none" xmlns="http://www.w3.org/2000/svg">
<g clip-path="url(#clip0_3909_18541)">
<path d="M297.868 223.457C259.402 198.201 224.343 170.401 197.089 133.803C185.557 118.315 177.291 101.436 175.113 81.6889C169.696 32.709 217.725 -4.25437 262.418 14.9722C277.818 21.5919 287.745 33.7912 294.503 48.8716C295.452 50.9939 296.388 53.1302 297.365 55.2524C297.407 55.3508 297.672 55.3367 298.063 55.4492C300.283 50.8393 302.336 46.0889 304.793 41.5352C316.786 19.3291 341.038 7.04545 365.779 10.4888C391.902 14.1289 412.985 32.8776 419.017 57.206C425.397 82.9679 417.313 105.427 403.491 126.298C383.008 157.246 355.378 181.139 326.211 203.331C317.107 210.245 307.585 216.598 297.882 223.457H297.868Z" fill="#171F49"/>
<path d="M298.537 300.292C300.241 295.95 302.307 290.679 304.359 285.409C315.78 256.007 333.038 230.737 356.857 210.091C367.007 201.293 378.54 194.898 391.287 191.201C415.819 184.09 434.612 169.614 448.951 148.574C454.773 140.029 461.363 131.976 468.093 124.119C473.175 118.202 479.249 116.755 483.074 119.439C486.9 122.124 487.738 128.308 484.54 135.264C473.817 158.567 458.347 178.187 438.563 194.378C437.069 195.6 435.561 196.781 434.053 197.99C434.333 198.566 434.612 199.128 434.891 199.704C443.199 195.741 451.855 192.368 459.744 187.702C486.579 171.792 500.708 147.618 503.236 116.614C504.38 102.532 504.813 88.3787 505.372 74.2539C505.553 69.5316 505.916 65.0763 511.278 63.5303C515.271 62.3778 519.027 65.2168 521.317 71.2603C527.46 87.4792 528.563 104.373 527.362 121.505C524.765 158.721 505.316 186.577 478.202 209.866C468.484 218.214 457.845 225.494 447.429 232.957C433.062 243.259 416.517 248.094 399.455 251.425C358.756 259.38 331.837 284.551 314.049 320.939C310.084 329.048 306.929 337.537 303.047 346.7C299.78 342.653 296.443 339.013 293.678 334.979C284.589 321.712 276.044 308.036 266.662 294.994C248.511 269.78 223.756 254.433 193.235 250.554C152.759 245.396 93.7831 195.305 79.3742 163.95C66.3476 135.588 64.3929 106.874 71.737 77.0648C72.6166 73.495 74.1245 69.6862 76.4701 67.0018C78.2294 65.006 82.2365 63.2492 84.4844 63.9379C86.6904 64.5985 89.2036 68.3791 89.399 70.9651C90.2507 82.2087 89.9715 93.5367 90.7254 104.794C91.9681 123.135 95.1095 141.167 104.799 157.119C117.686 178.342 137.024 191.173 160.299 198.496C146.811 187.674 135.348 174.954 125.687 160.731C120.185 152.636 115.494 143.922 111.012 135.194C107.34 128.055 108.22 122.292 112.339 119.552C116.639 116.684 122.643 118.174 127.711 124.372C135.278 133.634 142.441 143.219 149.59 152.804C161.653 168.981 176.439 181.799 195.902 187.505C234.004 198.692 259.039 225.185 278.348 258.101C286.251 271.565 291.933 286.336 298.523 300.292H298.537Z" fill="#171F49"/>
<path d="M368.991 411.352C340.396 418.309 312.668 421.781 284.744 411.76C269.762 406.377 257.559 397.185 246.781 385.689C242.02 380.615 237.272 375.485 232.065 370.889C219.052 359.379 203.135 356.582 186.436 355.64C168.719 354.642 150.833 353.996 133.394 351.03C110.524 347.137 92.3598 333.814 76.2615 317.426C54.5923 295.403 38.8431 269.725 28.3436 240.689C27.9108 239.522 27.0172 238.257 27.1847 237.161C27.5477 234.758 27.8968 230.977 29.279 230.429C31.3315 229.614 34.9895 230.316 36.7069 231.834C39.2899 234.083 41.0212 237.47 42.7245 240.59C60.0655 272.269 83.5497 297.75 115.83 314.404C125.869 319.591 136.424 322.669 147.538 324.215C158.819 325.775 168.565 316.175 166.931 304.819C166.903 304.637 166.876 304.454 166.848 304.271C165.074 293.084 158.303 283.33 148.767 277.301C144.983 274.911 141.339 272.536 137.834 269.978C128.899 263.471 120.228 256.612 111.697 249.571C108.891 247.238 106.434 244.174 104.605 240.97C101.938 236.247 104.814 231.019 110.231 231.272C114.071 231.441 118.232 232.902 121.555 234.926C128.55 239.171 135.126 244.118 141.814 248.882C156.627 259.423 173.145 265.818 190.974 268.46C219.834 272.747 241.238 287.898 256.61 312.507C268.171 331.017 280.01 349.33 295.327 365.071C315.628 385.9 338.889 401.795 366.98 409.989C367.455 410.13 367.832 410.565 368.991 411.381V411.352Z" fill="#171F49"/>
<path d="M568.159 238.103C555.286 275.319 534.441 307.04 503.78 331.833C484.54 347.377 461.684 352.914 437.697 354.643C424.21 355.613 410.653 355.753 397.179 356.793C380.899 358.058 367.203 365.184 355.754 376.779C353.757 378.803 351.844 380.897 349.136 383.75C338.804 376.61 328.486 369.47 317.805 362.078C328.919 325.845 343.774 293.548 379.252 276.823C389.207 272.115 400.502 269.965 411.393 267.688C430.297 263.738 446.661 254.744 462.173 243.725C466.389 240.717 470.536 237.639 474.864 234.8C477.07 233.353 479.486 231.989 481.999 231.287C485.685 230.233 489.72 230.907 491.116 234.702C492.01 237.19 491.772 241.701 490.125 243.261C481.496 251.441 472.561 259.41 463.08 266.592C458.138 270.344 452.874 273.675 447.485 277.02C433.913 285.425 427.142 301.939 431.735 317.3C431.791 317.511 431.861 317.708 431.931 317.919C433.313 322.275 437.488 325.114 442.011 324.819C469.363 323.063 492.373 310.891 512.688 292.241C529.023 277.231 542.176 259.789 552.522 240.099C553.946 237.386 555.844 234.913 557.687 232.594C559.921 229.769 563.998 228.954 566.972 230.991C569.178 232.509 569.346 234.632 568.159 238.075V238.103Z" fill="#171F49"/>
<path d="M281.95 -62.2419C274.662 -67.3437 267.095 -72.1081 259.36 -76.4791C209.152 -104.883 152.801 -83.6469 107.145 -57.4071C64.3929 -32.8399 22.716 1.66392 7.39961 50.5595C-4.60779 88.9143 -1.48028 131.092 12.9286 168.336C18.9044 183.782 26.8069 198.202 38.5211 210.148C40.6573 212.327 45.3905 215.334 45.4044 215.348C45.8652 215.587 46.3259 215.812 46.7867 216.023C69.4472 227.112 99.3819 214.491 99.4098 214.449C96.5476 212.524 69.2238 183.993 62.1729 168.477C49.1463 139.735 44.2316 110.066 53.3209 79.2026C59.7156 57.5306 73.3984 43.5323 96.7151 41.5225C118.468 39.6392 138.867 34.1298 157.716 22.5067C175.755 11.3896 194.464 1.39688 212.81 -9.22832C216.328 -11.2662 219.875 -13.5431 222.681 -16.4102C228.35 -22.2147 226.158 -31.6734 218.423 -34.1188C214.527 -35.3416 209.822 -35.9319 205.955 -34.9199C199.155 -33.135 192.621 -30.1414 186.184 -27.19C178.589 -23.7185 171.315 -19.4741 163.691 -16.0729C154.351 -11.9127 144.689 -8.77858 134.161 -8.08991C132.444 -7.97747 131.09 -9.72023 131.774 -11.3084C131.774 -11.3084 131.774 -11.3224 131.774 -11.3365C142.706 -36.1989 160.047 -54.2449 186.617 -61.5673C206.08 -66.922 225.041 -63.3803 243.499 -56.1001C250.452 -53.3594 257.349 -50.1691 264.567 -48.5669C269.51 -47.4706 275.248 -47.7939 280.135 -49.2274C287.591 -51.4059 288.345 -57.7163 281.894 -62.2138L281.95 -62.2419Z" fill="#171F49"/>
<path d="M314.049 -62.2419C321.337 -67.3437 328.904 -72.1081 336.639 -76.4791C386.847 -104.883 443.198 -83.6469 488.854 -57.4071C531.606 -32.8399 573.283 1.66392 588.585 50.5595C600.593 88.9143 597.465 131.092 583.056 168.336C577.081 183.782 569.178 198.202 557.464 210.148C555.328 212.327 550.595 215.334 550.581 215.348C550.12 215.587 549.659 215.812 549.198 216.023C526.538 227.112 496.603 214.491 496.575 214.449C499.437 212.524 526.761 183.993 533.812 168.477C546.839 139.735 551.753 110.066 542.664 79.2026C536.269 57.5306 522.587 43.5323 499.27 41.5225C477.517 39.6392 457.118 34.1298 438.27 22.5067C420.23 11.3896 401.521 1.39688 383.175 -9.22832C379.657 -11.2662 376.11 -13.5431 373.304 -16.4102C367.635 -22.2147 369.827 -31.6734 377.562 -34.1188C381.458 -35.3416 386.163 -35.9319 390.03 -34.9199C396.83 -33.135 403.364 -30.1414 409.801 -27.19C417.396 -23.7185 424.67 -19.4741 432.294 -16.0729C441.634 -11.9127 451.296 -8.77858 461.824 -8.08991C463.541 -7.97747 464.895 -9.72023 464.211 -11.3084C464.211 -11.3084 464.211 -11.3224 464.211 -11.3365C453.279 -36.1989 435.938 -54.2449 409.368 -61.5673C389.905 -66.922 370.944 -63.3803 352.486 -56.1001C345.533 -53.3594 338.636 -50.1691 331.418 -48.5669C326.475 -47.4706 320.737 -47.7939 315.85 -49.2274C308.394 -51.4059 307.64 -57.7163 314.091 -62.2138L314.049 -62.2419Z" fill="#171F49"/>
</g>
<defs>
<clipPath id="clip0_3909_18541">
<rect width="596" height="508" fill="white" transform="translate(0 -90)"/>
</clipPath>
</defs>
</svg>
