<svg width="40" height="34" viewBox="0 0 40 34" fill="none" xmlns="http://www.w3.org/2000/svg">
<path d="M19.4995 20.385C16.9809 18.7428 14.6872 16.9344 12.9019 14.5544C12.147 13.547 11.6063 12.4502 11.4631 11.1654C11.1088 7.97981 14.2528 5.57673 17.1781 6.82603C18.1871 7.25735 18.8356 8.05067 19.2793 9.03039C19.3424 9.16903 19.4025 9.30767 19.4657 9.44477C19.4687 9.45093 19.4857 9.45093 19.5119 9.45709C19.6567 9.15671 19.7922 8.84862 19.9524 8.55286C20.7381 7.10947 22.3247 6.30998 23.9452 6.53334C25.6551 6.77057 27.0354 7.98906 27.4297 9.57108C27.8472 11.2455 27.3173 12.7074 26.413 14.0645C25.0728 16.0763 23.2628 17.6307 21.3542 19.074C20.7581 19.5238 20.1342 19.9367 19.4995 20.3834V20.385Z" fill="white"/>
<path d="M19.5427 25.3821C19.6537 25.0987 19.7892 24.7567 19.9232 24.4147C20.6703 22.5015 21.801 20.8594 23.3599 19.5161C24.0239 18.9446 24.7787 18.5287 25.6136 18.2884C27.2203 17.8263 28.4495 16.8851 29.3892 15.5156C29.7697 14.9595 30.2026 14.4358 30.6431 13.9259C30.9759 13.5408 31.3733 13.4468 31.6244 13.6224C31.8755 13.798 31.9294 14.1985 31.7199 14.6514C31.0175 16.1672 30.0054 17.4427 28.7099 18.4964C28.6128 18.5765 28.5127 18.6535 28.4141 18.7305C28.4326 18.7675 28.4511 18.8044 28.4696 18.8414C29.0133 18.5842 29.5802 18.3654 30.0963 18.0604C31.8524 17.0252 32.7782 15.454 32.943 13.4376C33.0185 12.521 33.0462 11.6014 33.0832 10.6833C33.0955 10.3767 33.1186 10.0856 33.4698 9.98545C33.7317 9.90997 33.9766 10.0948 34.1261 10.4876C34.5281 11.5428 34.6005 12.6412 34.5219 13.7549C34.3525 16.1749 33.0786 17.9865 31.304 19.5007C30.6678 20.043 29.9715 20.5174 29.2891 21.0027C28.3479 21.6727 27.2649 21.987 26.1481 22.2042C23.4832 22.7218 21.7209 24.3577 20.5563 26.7254C20.2976 27.2522 20.0896 27.8052 19.8354 28.4014C19.6213 28.138 19.4026 27.9023 19.2223 27.6389C18.6262 26.7762 18.0685 25.8874 17.4539 25.0386C16.2662 23.398 14.6442 22.4014 12.6477 22.1487C9.99819 21.8145 6.13786 18.5564 5.19357 16.5169C4.34017 14.673 4.21231 12.8044 4.69447 10.8666C4.75147 10.634 4.85006 10.3875 5.0041 10.2119C5.11963 10.081 5.38151 9.9685 5.52939 10.0116C5.67419 10.0548 5.83902 10.3012 5.85134 10.4691C5.90679 11.2009 5.88831 11.9372 5.93914 12.6689C6.02079 13.8612 6.22567 15.0335 6.86033 16.0717C7.70448 17.4519 8.96918 18.2869 10.4942 18.7629C9.61154 18.0589 8.86135 17.2317 8.22823 16.3074C7.86777 15.7806 7.56122 15.2137 7.267 14.6468C7.02669 14.1816 7.08523 13.8073 7.35326 13.6301C7.63516 13.4437 8.02798 13.5408 8.35917 13.9444C8.85365 14.5467 9.32348 15.1706 9.79178 15.7944C10.582 16.8466 11.5494 17.6799 12.8234 18.0512C15.3173 18.7783 16.9563 20.502 18.221 22.6417C18.7386 23.5166 19.1099 24.4779 19.5427 25.3867V25.3821Z" fill="white"/>
<path d="M24.1546 32.6037C22.283 33.0566 20.4668 33.283 18.6398 32.6299C17.6586 32.2786 16.8606 31.6825 16.1551 30.9338C15.8424 30.6042 15.5328 30.2699 15.1923 29.9711C14.3405 29.2224 13.2991 29.0407 12.2054 28.979C11.0455 28.9143 9.87475 28.8727 8.73328 28.6786C7.23598 28.426 6.04676 27.5588 4.9931 26.4943C3.57436 25.0617 2.54381 23.3919 1.85523 21.5033C1.82751 21.4263 1.76897 21.3446 1.77975 21.2738C1.80286 21.1182 1.82597 20.8717 1.91685 20.8363C2.05087 20.7824 2.29118 20.8286 2.40363 20.9272C2.57308 21.0735 2.68553 21.2938 2.79798 21.4971C3.93328 23.5582 5.47064 25.2142 7.58412 26.2971C8.24189 26.6345 8.932 26.8347 9.66063 26.9349C10.3893 27.035 11.0362 26.4127 10.9299 25.6733C10.9284 25.6609 10.9269 25.6486 10.9238 25.6378C10.8067 24.9107 10.3646 24.2761 9.74073 23.8833C9.49272 23.7277 9.25395 23.5736 9.02443 23.4073C8.43906 22.9837 7.87064 22.5369 7.313 22.0794C7.12969 21.9269 6.96794 21.7282 6.84933 21.5202C6.67372 21.2137 6.86319 20.8733 7.21749 20.8887C7.46859 20.8994 7.74124 20.9949 7.95844 21.1259C8.41595 21.4016 8.84728 21.7236 9.28476 22.0332C10.2552 22.7187 11.3351 23.1346 12.5027 23.3071C14.3928 23.586 15.7931 24.5718 16.8006 26.1708C17.5569 27.3739 18.3317 28.5662 19.3361 29.589C20.6655 30.9431 22.1875 31.9783 24.0267 32.5097C24.0576 32.519 24.0822 32.5467 24.1577 32.6006L24.1546 32.6037Z" fill="white"/>
<path d="M37.1945 21.3369C36.3519 23.757 34.987 25.8196 32.9799 27.4324C31.7198 28.443 30.224 28.8034 28.6543 28.9159C27.7716 28.979 26.8843 28.9883 26.0017 29.0561C24.9357 29.1377 24.0392 29.6014 23.2905 30.3562C23.1596 30.4871 23.0348 30.6242 22.8576 30.8091C22.1814 30.3439 21.5051 29.8802 20.8058 29.3996C21.5329 27.0427 22.5064 24.9431 24.8294 23.8555C25.481 23.5505 26.2204 23.4104 26.9336 23.2609C28.1706 23.0037 29.2428 22.4199 30.2579 21.7036C30.5336 21.5079 30.8063 21.3077 31.0897 21.1228C31.2345 21.0288 31.3917 20.9395 31.5565 20.8933C31.7983 20.824 32.0618 20.8686 32.1526 21.1151C32.2112 21.2769 32.1958 21.5711 32.0879 21.6727C31.5226 22.2042 30.9372 22.7233 30.318 23.1901C29.9945 23.435 29.6494 23.6507 29.2967 23.8679C28.4078 24.4147 27.9657 25.4884 28.2661 26.4866C28.2707 26.5005 28.2738 26.5128 28.2784 26.5267C28.3693 26.8101 28.642 26.995 28.9378 26.9765C30.7277 26.8625 32.2343 26.0707 33.5637 24.8584C34.6327 23.8817 35.4939 22.748 36.1716 21.4679C36.2656 21.2907 36.3888 21.1305 36.509 20.9796C36.6553 20.7962 36.9218 20.7423 37.1159 20.8748C37.2607 20.9734 37.2715 21.112 37.193 21.3354L37.1945 21.3369Z" fill="white"/>
<path d="M13.025 30.2083C13.4517 30.2515 13.9123 30.4733 14.2497 30.7475C14.8581 31.2404 15.3865 31.8335 15.9195 32.4235C13.4856 32.1277 11.2135 31.4237 9.19702 30.0004C10.4725 30.0681 11.7541 30.0789 13.0235 30.2068L13.025 30.2083Z" fill="white"/>
<path d="M24.1995 31.2528C24.5137 30.6581 25.0328 30.3362 25.629 30.2761C26.9615 30.139 28.3032 30.0897 29.6449 30.0574C28.0028 31.2204 26.2791 31.9706 24.1995 31.2543V31.2528Z" fill="white"/>
<path d="M18.4567 1.80424C17.9792 1.47304 17.4847 1.16341 16.9779 0.878434C13.6906 -0.96855 10.0028 0.413222 7.0128 2.11849C4.21537 3.71592 1.48572 5.96033 0.484431 9.1398C-0.301191 11.6338 -0.0963132 14.3773 0.846434 16.7988C1.2377 17.8032 1.75529 18.7413 2.52243 19.5177C2.66261 19.6594 2.97224 19.8551 2.97224 19.8551C3.0015 19.8705 3.03231 19.8859 3.06312 19.8982C4.54656 20.6191 6.506 19.7996 6.50908 19.7965C6.32115 19.6718 4.5327 17.8155 4.07211 16.8065C3.21871 14.938 2.89676 13.0078 3.4929 11.0006C3.9119 9.59114 4.8069 8.68075 6.33347 8.54981C7.75837 8.42811 9.09239 8.06919 10.3278 7.31284C11.5093 6.59037 12.734 5.94031 13.934 5.24865C14.1635 5.11618 14.3961 4.96829 14.581 4.7819C14.9522 4.40449 14.809 3.78832 14.3021 3.62965C14.048 3.54955 13.7383 3.51258 13.4857 3.57728C13.0405 3.69281 12.6138 3.88845 12.1918 4.07946C11.6942 4.30591 11.2182 4.58164 10.7191 4.80193C10.1075 5.07304 9.47596 5.27638 8.78584 5.32105C8.67339 5.32876 8.58405 5.21476 8.63026 5.11155C8.63026 5.11155 8.63026 5.11155 8.63026 5.11001C9.34656 3.49255 10.4819 2.31874 12.221 1.84275C13.495 1.49461 14.7366 1.72413 15.9443 2.19859C16.3987 2.37728 16.8516 2.5837 17.3245 2.68845C17.648 2.75931 18.0238 2.73928 18.3443 2.64531C18.8326 2.50359 18.8819 2.09384 18.4598 1.80116L18.4567 1.80424Z" fill="white"/>
<path d="M20.5593 1.80424C21.0369 1.47304 21.5313 1.16341 22.0381 0.878434C25.3254 -0.96855 29.0132 0.413222 32.0032 2.11849C34.8022 3.71592 37.5303 5.96033 38.5331 9.1398C39.3188 11.6338 39.1139 14.3773 38.1711 16.7988C37.7799 17.8032 37.2623 18.7413 36.4951 19.5177C36.355 19.6594 36.0453 19.8551 36.0453 19.8551C36.0161 19.8705 35.9853 19.8859 35.9545 19.8982C34.471 20.6191 32.5116 19.7996 32.5085 19.7965C32.6964 19.6718 34.4849 17.8155 34.9455 16.8065C35.7989 14.938 36.1208 13.0078 35.5247 11.0006C35.1057 9.59114 34.2107 8.68075 32.6841 8.54981C31.2592 8.42811 29.9252 8.06919 28.6898 7.31284C27.5082 6.59037 26.2836 5.94031 25.0836 5.24865C24.8541 5.11618 24.6215 4.96829 24.4366 4.7819C24.0654 4.40449 24.2086 3.78832 24.7154 3.62965C24.9696 3.54955 25.2792 3.51258 25.5319 3.57728C25.977 3.69281 26.4037 3.88845 26.8258 4.07946C27.3234 4.30591 27.7994 4.58164 28.2985 4.80193C28.91 5.07304 29.5416 5.27638 30.2317 5.32105C30.3442 5.32876 30.4335 5.21476 30.3873 5.11155C30.3873 5.11155 30.3873 5.11155 30.3873 5.11001C29.671 3.49255 28.5357 2.31874 26.7966 1.84275C25.5226 1.49461 24.281 1.72413 23.0733 2.19859C22.6189 2.37728 22.166 2.5837 21.6931 2.68845C21.3696 2.75931 20.9937 2.73928 20.6733 2.64531C20.185 2.50359 20.1357 2.09384 20.5578 1.80116L20.5593 1.80424Z" fill="white"/>
</svg>
