<svg width="596" height="508" viewBox="0 0 596 508" fill="none" xmlns="http://www.w3.org/2000/svg">
<g clip-path="url(#clip0_3918_18885)">
<path d="M297.868 313.457C259.402 288.201 224.343 260.401 197.089 223.803C185.557 208.315 177.291 191.436 175.113 171.689C169.696 122.709 217.725 85.7456 262.418 104.972C277.818 111.592 287.745 123.791 294.503 138.872C295.452 140.994 296.388 143.13 297.365 145.252C297.407 145.351 297.672 145.337 298.063 145.449C300.283 140.839 302.336 136.089 304.793 131.535C316.786 109.329 341.038 97.0454 365.779 100.489C391.902 104.129 412.985 122.878 419.017 147.206C425.397 172.968 417.313 195.427 403.491 216.298C383.008 247.246 355.378 271.139 326.211 293.331C317.107 300.245 307.585 306.598 297.882 313.457H297.868Z" fill="#171F49"/>
<path d="M298.537 390.292C300.241 385.95 302.307 380.679 304.359 375.409C315.78 346.007 333.038 320.737 356.857 300.091C367.007 291.293 378.54 284.898 391.287 281.201C415.819 274.09 434.612 259.614 448.951 238.574C454.773 230.029 461.363 221.976 468.093 214.119C473.175 208.202 479.249 206.755 483.074 209.439C486.9 212.124 487.738 218.308 484.54 225.264C473.817 248.567 458.347 268.187 438.563 284.378C437.069 285.6 435.561 286.781 434.053 287.99C434.333 288.566 434.612 289.128 434.891 289.704C443.199 285.741 451.855 282.368 459.744 277.702C486.579 261.792 500.708 237.618 503.236 206.614C504.38 192.532 504.813 178.379 505.372 164.254C505.553 159.532 505.916 155.076 511.278 153.53C515.271 152.378 519.027 155.217 521.317 161.26C527.46 177.479 528.563 194.373 527.362 211.505C524.765 248.721 505.316 276.577 478.202 299.866C468.484 308.214 457.845 315.494 447.429 322.957C433.062 333.259 416.517 338.094 399.455 341.425C358.756 349.38 331.837 374.551 314.049 410.939C310.084 419.048 306.929 427.537 303.047 436.7C299.78 432.653 296.443 429.013 293.678 424.979C284.589 411.712 276.044 398.036 266.662 384.994C248.511 359.78 223.756 344.433 193.235 340.554C152.759 335.396 93.7831 285.305 79.3742 253.95C66.3476 225.588 64.3929 196.874 71.737 167.065C72.6166 163.495 74.1245 159.686 76.4701 157.002C78.2294 155.006 82.2365 153.249 84.4844 153.938C86.6904 154.598 89.2036 158.379 89.399 160.965C90.2507 172.209 89.9715 183.537 90.7254 194.794C91.9681 213.135 95.1095 231.167 104.799 247.119C117.686 268.342 137.024 281.173 160.299 288.496C146.811 277.674 135.348 264.954 125.687 250.731C120.185 242.636 115.494 233.922 111.012 225.194C107.34 218.055 108.22 212.292 112.339 209.552C116.639 206.684 122.643 208.174 127.711 214.372C135.278 223.634 142.441 233.219 149.59 242.804C161.653 258.981 176.439 271.799 195.902 277.505C234.004 288.692 259.039 315.185 278.348 348.101C286.251 361.565 291.933 376.336 298.523 390.292H298.537Z" fill="#171F49"/>
<path d="M368.991 501.352C340.396 508.309 312.668 511.781 284.744 501.76C269.762 496.377 257.559 487.185 246.781 475.689C242.02 470.615 237.272 465.485 232.065 460.889C219.052 449.379 203.135 446.582 186.436 445.64C168.719 444.642 150.833 443.996 133.394 441.03C110.524 437.137 92.3598 423.814 76.2615 407.426C54.5923 385.403 38.8431 359.725 28.3436 330.689C27.9108 329.522 27.0172 328.257 27.1847 327.161C27.5477 324.758 27.8968 320.977 29.279 320.429C31.3315 319.614 34.9895 320.316 36.7069 321.834C39.2899 324.083 41.0212 327.47 42.7245 330.59C60.0655 362.269 83.5497 387.75 115.83 404.404C125.869 409.591 136.424 412.669 147.538 414.215C158.819 415.775 168.565 406.175 166.931 394.819C166.903 394.637 166.876 394.454 166.848 394.271C165.074 383.084 158.303 373.33 148.767 367.301C144.983 364.911 141.339 362.536 137.834 359.978C128.899 353.471 120.228 346.612 111.697 339.571C108.891 337.238 106.434 334.174 104.605 330.97C101.938 326.247 104.814 321.019 110.231 321.272C114.071 321.441 118.232 322.902 121.555 324.926C128.55 329.171 135.126 334.118 141.814 338.882C156.627 349.423 173.145 355.818 190.974 358.46C219.834 362.747 241.238 377.898 256.61 402.507C268.171 421.017 280.01 439.33 295.327 455.071C315.628 475.9 338.889 491.795 366.98 499.989C367.455 500.13 367.832 500.565 368.991 501.381V501.352Z" fill="#171F49"/>
<path d="M568.159 328.103C555.286 365.319 534.441 397.04 503.78 421.833C484.54 437.377 461.684 442.914 437.697 444.643C424.21 445.613 410.653 445.753 397.179 446.793C380.899 448.058 367.203 455.184 355.754 466.779C353.757 468.803 351.844 470.897 349.136 473.75C338.804 466.61 328.486 459.47 317.805 452.078C328.919 415.845 343.774 383.548 379.252 366.823C389.207 362.115 400.502 359.965 411.393 357.688C430.297 353.738 446.661 344.744 462.173 333.725C466.389 330.717 470.536 327.639 474.864 324.8C477.07 323.353 479.486 321.989 481.999 321.287C485.685 320.233 489.72 320.907 491.116 324.702C492.01 327.19 491.772 331.701 490.125 333.261C481.496 341.441 472.561 349.41 463.08 356.592C458.138 360.344 452.874 363.675 447.485 367.02C433.913 375.425 427.142 391.939 431.735 407.3C431.791 407.511 431.861 407.708 431.931 407.919C433.313 412.275 437.488 415.114 442.011 414.819C469.363 413.063 492.373 400.891 512.688 382.241C529.023 367.231 542.176 349.789 552.522 330.099C553.946 327.386 555.844 324.913 557.687 322.594C559.921 319.769 563.998 318.954 566.972 320.991C569.178 322.509 569.346 324.632 568.159 328.075V328.103Z" fill="#171F49"/>
<path d="M198.973 464.502C205.479 465.162 212.53 468.591 217.682 472.794C226.981 480.369 235.037 489.49 243.191 498.57C206.024 494.016 171.3 483.208 140.514 461.325C160.005 462.351 179.58 462.52 198.959 464.502H198.973Z" fill="#171F49"/>
<path d="M369.66 480.564C374.463 471.429 382.38 466.482 391.483 465.54C411.84 463.432 432.322 462.673 452.832 462.167C427.756 480.044 401.424 491.583 369.66 480.564Z" fill="#171F49"/>
<path d="M281.95 27.7581C274.662 22.6563 267.095 17.8919 259.36 13.5209C209.152 -14.8832 152.801 6.35311 107.145 32.5929C64.3929 57.1601 22.716 91.6639 7.39961 140.56C-4.60779 178.914 -1.48028 221.092 12.9286 258.336C18.9044 273.782 26.8069 288.202 38.5211 300.148C40.6573 302.327 45.3905 305.334 45.4044 305.348C45.8652 305.587 46.3259 305.812 46.7867 306.023C69.4472 317.112 99.3819 304.491 99.4098 304.449C96.5476 302.524 69.2238 273.993 62.1729 258.477C49.1463 229.735 44.2316 200.066 53.3209 169.203C59.7156 147.531 73.3984 133.532 96.7151 131.522C118.468 129.639 138.867 124.13 157.716 112.507C175.755 101.39 194.464 91.3969 212.81 80.7717C216.328 78.7338 219.875 76.4569 222.681 73.5898C228.35 67.7853 226.158 58.3266 218.423 55.8812C214.527 54.6584 209.822 54.0681 205.955 55.0801C199.155 56.865 192.621 59.8586 186.184 62.81C178.589 66.2815 171.315 70.5259 163.691 73.9271C154.351 78.0873 144.689 81.2214 134.161 81.9101C132.444 82.0225 131.09 80.2798 131.774 78.6916C131.774 78.6916 131.774 78.6776 131.774 78.6635C142.706 53.8011 160.047 35.7551 186.617 28.4327C206.08 23.078 225.041 26.6197 243.499 33.8999C250.452 36.6406 257.349 39.8309 264.567 41.4331C269.51 42.5294 275.248 42.2061 280.135 40.7726C287.591 38.5941 288.345 32.2837 281.894 27.7862L281.95 27.7581Z" fill="#171F49"/>
<path d="M314.049 27.7581C321.337 22.6563 328.904 17.8919 336.639 13.5209C386.847 -14.8832 443.198 6.35311 488.854 32.5929C531.606 57.1601 573.283 91.6639 588.585 140.56C600.593 178.914 597.465 221.092 583.056 258.336C577.081 273.782 569.178 288.202 557.464 300.148C555.328 302.327 550.595 305.334 550.581 305.348C550.12 305.587 549.659 305.812 549.198 306.023C526.538 317.112 496.603 304.491 496.575 304.449C499.437 302.524 526.761 273.993 533.812 258.477C546.839 229.735 551.753 200.066 542.664 169.203C536.269 147.531 522.587 133.532 499.27 131.522C477.517 129.639 457.118 124.13 438.27 112.507C420.23 101.39 401.521 91.3969 383.175 80.7717C379.657 78.7338 376.11 76.4569 373.304 73.5898C367.635 67.7853 369.827 58.3266 377.562 55.8812C381.458 54.6584 386.163 54.0681 390.03 55.0801C396.83 56.865 403.364 59.8586 409.801 62.81C417.396 66.2815 424.67 70.5259 432.294 73.9271C441.634 78.0873 451.296 81.2214 461.824 81.9101C463.541 82.0225 464.895 80.2798 464.211 78.6916C464.211 78.6916 464.211 78.6776 464.211 78.6635C453.279 53.8011 435.938 35.7551 409.368 28.4327C389.905 23.078 370.944 26.6197 352.486 33.8999C345.533 36.6406 338.636 39.8309 331.418 41.4331C326.475 42.5294 320.737 42.2061 315.85 40.7726C308.394 38.5941 307.64 32.2837 314.091 27.7862L314.049 27.7581Z" fill="#171F49"/>
</g>
<defs>
<clipPath id="clip0_3918_18885">
<rect width="596" height="508" fill="white"/>
</clipPath>
</defs>
</svg>
