<svg width="10" height="9" viewBox="0 0 10 9" fill="none" xmlns="http://www.w3.org/2000/svg">
<path d="M4.99656 9C3.43597 7.93642 2.01473 6.76508 0.908481 5.22359C0.440781 4.57107 0.105755 3.86068 0.016987 3.02858C-0.202546 0.965266 1.74557 -0.591195 3.55814 0.217965C4.18334 0.49733 4.58518 1.01116 4.86007 1.64572C4.8992 1.73552 4.93643 1.82531 4.97556 1.91411C4.97747 1.9181 4.98797 1.9181 5.0042 1.92209C5.09392 1.72753 5.17791 1.52799 5.27718 1.33642C5.76397 0.401548 6.7471 -0.116275 7.75122 0.028396C8.8107 0.182047 9.66593 0.971253 9.91028 1.99592C10.1689 3.08046 9.8406 4.02731 9.28031 4.90631C8.44991 6.20934 7.32838 7.21606 6.14577 8.15093C5.77638 8.44227 5.38981 8.70966 4.99656 8.999V9Z" fill="white"/>
</svg>
