<svg width="24" height="24" viewBox="0 0 24 24" fill="none" xmlns="http://www.w3.org/2000/svg">
<path d="M5.4062 2.3999H5.3906C5.31816 2.40143 5.24661 2.41607 5.1794 2.4431C5.0822 2.48158 4.99675 2.54478 4.9315 2.62645C4.86625 2.70812 4.82347 2.80541 4.8074 2.9087C4.7882 3.0215 4.2002 6.7139 4.2002 8.3999C4.2002 9.5399 4.7306 10.5563 5.5562 11.2139C5.8562 11.4551 6.0002 11.7167 6.0002 11.9351V12.5351C6.0002 12.5567 5.999 12.5783 5.9966 12.5999C5.9642 12.9119 5.8154 14.3147 5.675 15.7571C5.537 17.1791 5.4002 18.6971 5.4002 19.1999C5.4002 19.8364 5.65305 20.4469 6.10314 20.897C6.55323 21.347 7.16368 21.5999 7.8002 21.5999C8.43671 21.5999 9.04716 21.347 9.49725 20.897C9.94734 20.4469 10.2002 19.8364 10.2002 19.1999C10.2002 18.6959 10.0634 17.1791 9.9254 15.7571C9.8228 14.7046 9.7156 13.6526 9.6038 12.6011L9.60019 12.5351V11.9351C9.60019 11.7155 9.74419 11.4551 10.0442 11.2139C10.4671 10.8768 10.8085 10.4488 11.0433 9.96163C11.2781 9.47447 11.4 8.94068 11.4002 8.3999C11.4002 6.7103 10.8086 3.0011 10.793 2.9075C10.7753 2.79472 10.7259 2.68931 10.6504 2.60365C10.575 2.51799 10.4767 2.45564 10.367 2.4239C10.3167 2.40917 10.2646 2.4011 10.2122 2.3999H10.1882H10.1894C10.0295 2.40117 9.8766 2.46557 9.76399 2.57908C9.65138 2.69259 9.58819 2.84601 9.58819 3.0059V7.8059C9.58985 7.88391 9.57612 7.96147 9.5478 8.03417C9.51948 8.10688 9.47711 8.17329 9.42313 8.22961C9.36914 8.28594 9.30458 8.33108 9.23315 8.36246C9.16172 8.39384 9.0848 8.41085 9.00679 8.4125C8.92879 8.41416 8.85122 8.40043 8.77852 8.37211C8.70582 8.34379 8.63941 8.30142 8.58308 8.24743C8.52675 8.19344 8.48161 8.12889 8.45023 8.05746C8.41885 7.98602 8.40185 7.90911 8.4002 7.8311V2.9999C8.4002 2.84077 8.33698 2.68816 8.22446 2.57564C8.11194 2.46312 7.95933 2.3999 7.8002 2.3999C7.64107 2.3999 7.48845 2.46312 7.37593 2.57564C7.26341 2.68816 7.2002 2.84077 7.2002 2.9999V7.7999L7.2014 7.8383C7.1971 7.99584 7.1304 8.14522 7.01596 8.25358C6.90153 8.36194 6.74873 8.4204 6.59119 8.4161C6.43366 8.41181 6.28428 8.3451 6.17592 8.23067C6.06756 8.11623 6.0091 7.96344 6.0134 7.8059V3.0071C6.0134 2.84627 5.94959 2.69201 5.83597 2.57817C5.72236 2.46433 5.56703 2.40022 5.4062 2.3999ZM13.2002 7.7999C13.2002 6.36773 13.7691 4.99422 14.7818 3.98153C15.7945 2.96883 17.168 2.3999 18.6002 2.3999C18.7593 2.3999 18.9119 2.46312 19.0245 2.57564C19.137 2.68816 19.2002 2.84077 19.2002 2.9999V11.3735L19.2242 11.6423C19.3177 12.7205 19.4089 13.7989 19.4978 14.8775C19.6466 16.6859 19.8002 18.6707 19.8002 19.1999C19.8002 19.8364 19.5473 20.4469 19.0972 20.897C18.6472 21.347 18.0367 21.5999 17.4002 21.5999C16.7637 21.5999 16.1532 21.347 15.7031 20.897C15.2531 20.4469 15.0002 19.8364 15.0002 19.1999C15.0002 18.6719 15.1538 16.6859 15.3026 14.8775C15.377 13.9643 15.4526 13.0811 15.509 12.4271L15.545 11.9999H15.0002C14.5228 11.9999 14.065 11.8103 13.7274 11.4727C13.3898 11.1351 13.2002 10.6773 13.2002 10.1999V7.7999Z" fill="#6AA9F0"/>
</svg>
